<svg width="715" height="625" viewBox="0 0 715 625" fill="none" xmlns="http://www.w3.org/2000/svg">
    <path d="M0 108.894L126.358 60.6106L149.986 50.3376L227.033 28.7644L280.453 11.3003L309.217 0H314.353L326.681 3.0819H380.101L391.401 0H405.783L410.92 2.0546L421.193 7.19109L426.329 9.24569L447.902 14.3822L472.557 22.6006L530.086 40.0647L555.769 47.2558L605.079 66.7744L635.898 79.102L715 114.03L652.335 259.907L592.751 256.825L562.96 250.661L560.905 620.489L142.795 624.598L144.849 239.361H132.522L114.03 245.524L93.4842 247.579L65.7471 257.852L24.6552 173.614L10.273 142.795L0 108.894Z" fill="#D9D9D9" fill-opacity="0.5"/>
    </svg>
    